<svg xmlns="http://www.w3.org/2000/svg" viewBox="0 0 720 600" fill="none">
  <defs>
    <linearGradient id="tray" x1="183" x2="539" y1="321" y2="467" gradientUnits="userSpaceOnUse">
      <stop stop-color="#BD946F"/>
      <stop offset="1" stop-color="#946C4D"/>
    </linearGradient>
    <linearGradient id="glass" x1="402" x2="498" y1="144" y2="316" gradientUnits="userSpaceOnUse">
      <stop stop-color="#F7F0DF"/>
      <stop offset="1" stop-color="#DCCEB3"/>
    </linearGradient>
  </defs>
  <path fill="#DCE5DC" d="M0 0h720v600H0z"/>
  <circle cx="563" cy="126" r="82" fill="#E8EEE6"/>
  <path fill="#CFDCCE" d="M0 448c155-32 273-28 391-7 120 22 224 18 329-8v167H0V448Z"/>
  <ellipse cx="363" cy="488" fill="#536454" opacity=".18" rx="227" ry="34"/>
  <path fill="#76563D" d="M139 324c0-29 22-51 51-51h340c29 0 51 22 51 51v120c0 29-22 51-51 51H190c-29 0-51-22-51-51V324Z"/>
  <path fill="url(#tray)" d="M151 319c0-24 18-42 42-42h335c24 0 42 18 42 42v104c0 24-18 42-42 42H193c-24 0-42-18-42-42V319Z"/>
  <path stroke="#E3C7A6" stroke-linecap="round" stroke-width="5" d="M180 323h362M180 420h362" opacity=".52"/>
  <path fill="url(#glass)" d="M410 176c0-21 17-38 38-38h29c21 0 38 17 38 38v106c0 21-17 38-38 38h-29c-21 0-38-17-38-38V176Z"/>
  <ellipse cx="461" cy="177" fill="#B9AA92" rx="51" ry="12"/>
  <ellipse cx="461" cy="177" fill="#EEE5D3" rx="43" ry="8"/>
  <path stroke="#FFF9EC" stroke-linecap="round" stroke-width="7" d="M431 197v72" opacity=".72"/>
  <path fill="#B97752" d="M241 262c-3-36 21-64 57-68 16 33 5 69-26 87l-31 16v-35Z"/>
  <path fill="#65775E" d="M266 282c0-48-24-74-64-80-7 43 11 74 50 89l14 6v-15Z"/>
  <path fill="#C88C60" d="M236 303c22-24 51-27 79-8-12 31-37 46-72 38l-20-5 13-25Z"/>
  <path stroke="#54654F" stroke-linecap="round" stroke-width="5" d="M260 302c14-30 25-58 35-87"/>
</svg>
